<?xml version="1.0" encoding="UTF-8" standalone="no" ?><svg xmlns="http://www.w3.org/2000/svg" xmlns:xlink="http://www.w3.org/1999/xlink" xmlns:ns4d="http://www.4D.com" ns4d:font-weight-legacy="false" version="1.1" width="595pt" height="842pt" viewBox="0 0 595 842" preserveAspectRatio="none"><title>4D Write Pro New Document</title><style type="text/css">text { white-space:pre }</style><g fill="#FFFFFF" stroke="#000000" stroke-width="1" stroke-miterlimit="10" font-family="&apos;Times New Roman&apos;" font-size="12"><g><g><g stroke="none"><rect x="0" y="0" width="595" height="842"/></g><clipPath id="clip1"><rect x="0" y="69.85" width="595" height="167"/></clipPath><g clip-path="url(#clip1)"><g transform="translate(70.85,70.85)" fill="#1F3A5F" stroke="none" font-family="&apos;Tahoma&apos;" font-size="18"><text x="1" y="18">A.</text><g font-weight="bold"><text x="21.25" y="18">Spanish Novels</text><g transform="translate(0,21.75)" fill="#52796F" font-weight="normal" font-size="16"><text x="10.5" y="16">A.1.</text><g font-weight="bold"><text x="42.5" y="16">20th century</text><g transform="translate(0,19.35)" fill="#000000" font-family="&apos;Times New Roman&apos;" font-weight="normal" font-size="12"><text x="45.8" y="11.2">(1)</text><text x="63.8" y="11.2">Cien años de soledad</text><g transform="translate(0,13.8)"><text x="45.8" y="11.2">(2)</text><text x="63.8" y="11.2">El túnel</text><g transform="translate(0,13.8)"><text x="45.8" y="11.2">(3)</text><text x="63.8" y="11.2">Ficciones</text><g transform="translate(0,13.8)" fill="#1F3A5F" font-family="&apos;Tahoma&apos;" font-size="18"><text x="1.2" y="18">B.</text><g font-weight="bold"><text x="21.25" y="18">French Novels</text><g transform="translate(0,21.75)" fill="#52796F" font-weight="normal" font-size="16"><text x="10.65" y="16">B.1.</text><g font-weight="bold"><text x="42.5" y="16">19th century</text><g transform="translate(0,19.35)" fill="#000000" font-family="&apos;Times New Roman&apos;" font-weight="normal" font-size="12"><text x="45.8" y="11.2">(1)</text><text x="63.8" y="11.2">Les Misérables</text><g transform="translate(0,13.8)"><text x="45.8" y="11.2">(2)</text><text x="63.8" y="11.2">Madame Bovary</text><g transform="translate(0,13.8)"><text x="45.8" y="11.2">(3)</text><text x="63.8" y="11.2">Germinal</text></g></g></g></g></g></g></g></g></g></g></g></g></g></g></g></g></g></g></svg>